<?xml version="1.0" encoding="UTF-8"?>
<svg width="124px" height="72px" viewBox="0 0 124 72" version="1.1" xmlns="http://www.w3.org/2000/svg" xmlns:xlink="http://www.w3.org/1999/xlink" xmlns:sketch="http://www.bohemiancoding.com/sketch/ns">
    <!-- Generator: Sketch 3.4.2 (15855) - http://www.bohemiancoding.com/sketch -->
    <title>Untitled 2</title>
    <desc>Created with Sketch.</desc>
    <defs></defs>
    <g id="Page-1" stroke="none" stroke-width="1" fill="none" fill-rule="evenodd" sketch:type="MSPage">
        <g id="NT-alt-logo-rgb-navy-color" sketch:type="MSLayerGroup">
            <g id="Group" sketch:type="MSShapeGroup">
                <path d="M0.27,71.142 L17.234,0.858 L22.818,0.858 L5.853,71.142 L0.27,71.142" id="Fill-1" fill="#5498C6"></path>
                <path d="M55.221,60.99 L55.221,35.959 C55.221,29.742 52.071,27.67 47.181,27.67 C42.706,27.67 38.892,30.322 36.903,33.057 L36.903,60.99 L28.2,60.99 L28.2,20.956 L36.903,20.956 L36.903,26.426 C39.555,23.277 44.695,19.962 50.994,19.962 C59.614,19.962 63.924,24.603 63.924,32.809 L63.924,60.99 L55.221,60.99" id="Fill-2" fill="#232F39"></path>
                <path d="M73.619,51.707 L73.619,28.582 L66.988,28.582 L66.988,20.956 L73.619,20.956 L73.619,10.015 L82.322,10.015 L82.322,20.956 L90.444,20.956 L90.444,28.582 L82.322,28.582 L82.322,49.551 C82.322,52.287 83.648,54.276 86.134,54.276 C87.792,54.276 89.367,53.613 90.03,52.867 L92.102,59.415 C90.527,60.907 87.958,61.985 83.896,61.985 C77.182,61.985 73.619,58.338 73.619,51.707" id="Fill-3" fill="#232F39"></path>
                <path d="M100.967,71.142 L117.931,0.858 L123.515,0.858 L106.55,71.142 L100.967,71.142" id="Fill-4" fill="#DF666D"></path>
            </g>
        </g>
    </g>
</svg>